<?xml version='1.0' encoding='UTF-8' standalone='no'?>
<svg width="9.99067mm" height="9.99067mm" baseProfile="tiny" version="1.2" xmlns:xlink="http://www.w3.org/1999/xlink" xmlns="http://www.w3.org/2000/svg" viewBox="0 0 118 118">
 <title>Qt SVG Document</title>
 <desc>Generated with Qt</desc>
 <defs/>
 <g stroke-width="1" stroke-linecap="square" stroke-linejoin="bevel" fill="none" stroke="black" fill-rule="evenodd">
  <g font-weight="400" stroke-opacity="1" stroke-width="1" stroke-linecap="square" transform="matrix(1,0,0,1,0,0)" stroke-linejoin="bevel" font-family="Ubuntu" fill="none" font-style="normal" stroke="#000000" font-size="45.8333"/>
  <g font-weight="400" stroke-opacity="1" stroke-width="1" stroke-linecap="square" transform="matrix(1,0,0,1,0,0)" stroke-linejoin="bevel" font-family="Ubuntu" fill="none" font-style="normal" stroke="#000000" font-size="45.8333"/>
  <g font-weight="400" stroke-opacity="1" stroke-width="1" stroke-linecap="square" transform="matrix(11.8,0,0,11.8,0,0)" stroke-linejoin="bevel" font-family="Ubuntu" fill="none" font-style="normal" stroke="#000000" font-size="45.8333"/>
  <g font-weight="400" stroke-opacity="1" stroke-width="1" stroke-linecap="square" transform="matrix(0.999067,0,0,0.999067,0,0)" stroke-linejoin="bevel" font-family="Ubuntu" fill="none" font-style="normal" stroke="#000000" font-size="45.8333"/>
  <g font-weight="400" transform="matrix(0.999067,0,0,0.999067,0,0)" font-family="Ubuntu" fill="#ffffff" font-style="normal" fill-opacity="0" stroke="none" font-size="45.8333">
   <path vector-effect="none" d="M-2,-2 L121,-2 L121,121 L-2,121 L-2,-2" fill-rule="evenodd"/>
  </g>
  <g font-weight="400" stroke-opacity="1" stroke-width="1" stroke-linecap="square" transform="matrix(0.999067,0,0,0.999067,0,0)" stroke-linejoin="bevel" font-family="Ubuntu" fill="none" font-style="normal" stroke="#000000" font-size="45.8333"/>
  <g font-weight="400" stroke-opacity="1" stroke-width="1" stroke-linecap="square" transform="matrix(11.8,0,0,11.8,0,0)" stroke-linejoin="bevel" font-family="Ubuntu" fill="none" font-style="normal" stroke="#000000" font-size="45.8333"/>
  <g font-weight="400" stroke-opacity="1" stroke-width="1" stroke-linecap="square" transform="matrix(11.8,0,0,11.8,0,0)" stroke-linejoin="bevel" font-family="Ubuntu" fill="none" font-style="normal" stroke="#000000" font-size="45.8333"/>
  <g font-weight="400" stroke-opacity="1" stroke-width="1" stroke-linecap="square" transform="matrix(11.8,0,0,11.8,0,0)" stroke-linejoin="bevel" font-family="Ubuntu" fill="none" font-style="normal" stroke="#000000" font-size="45.8333"/>
  <g font-weight="400" stroke-opacity="1" stroke-width="1" stroke-linecap="square" transform="matrix(11.8,0,0,11.8,0,0)" stroke-linejoin="bevel" font-family="Ubuntu" fill="none" font-style="normal" stroke="#000000" font-size="45.8333"/>
  <g font-weight="400" stroke-opacity="1" stroke-width="1" stroke-linecap="square" transform="matrix(11.8,0,0,11.8,0,0)" stroke-linejoin="bevel" font-family="Ubuntu" fill="none" font-style="normal" stroke="#000000" font-size="45.8333"/>
  <g font-weight="400" stroke-opacity="1" stroke-width="1" stroke-linecap="square" transform="matrix(11.8,0,0,11.8,0,0)" stroke-linejoin="bevel" font-family="Ubuntu" fill="none" font-style="normal" stroke="#000000" font-size="45.8333"/>
  <g font-weight="400" transform="matrix(0.999067,0,0,0.999067,0,0)" font-family="Ubuntu" fill="#000000" font-style="normal" fill-opacity="0" stroke="none" font-size="45.8333">
   <rect y="0" width="118" height="118" x="0"/>
  </g>
  <g font-weight="400" stroke-opacity="1" stroke-width="1" stroke-linecap="square" transform="matrix(0.999067,0,0,0.999067,0,0)" stroke-linejoin="bevel" font-family="Ubuntu" fill="none" font-style="normal" stroke="#000000" font-size="45.8333"/>
  <g font-weight="400" stroke-opacity="1" stroke-width="1" stroke-linecap="square" transform="matrix(0.999067,0,0,0.999067,0,0)" stroke-linejoin="bevel" font-family="Ubuntu" fill="none" font-style="normal" stroke="#e31a1c" font-size="45.8333">
   <path vector-effect="non-scaling-stroke" d="M103.79,107.159 L96.7192,129.8 L63.4769,129.8 L24.5297,117.499 L34.0714,86.9708 L103.79,107.159" fill-rule="evenodd"/>
   <path vector-effect="non-scaling-stroke" d="M110.874,84.9017 L103.79,107.159 L34.0714,86.9708 L42.1696,62.0532 L110.874,84.9017" fill-rule="evenodd"/>
   <path vector-effect="non-scaling-stroke" d="M129.8,24.5666 L112.669,76.8046 L77.2811,65.1974 L101.426,-8.83172 L129.8,0.192668 L129.8,24.5666" fill-rule="evenodd"/>
   <path vector-effect="non-scaling-stroke" d="M77.2811,65.1974 L80.2061,66.294 L40.0769,53.1371 L40.1241,52.9934 L40.1693,52.8554 L61.2577,-11.8 L92.7309,-11.8 L101.426,-8.83172 L77.2811,65.1974" fill-rule="evenodd"/>
   <path vector-effect="non-scaling-stroke" d="M-11.8,-11.8 L9.37042,-11.8 L-11.8,57.934 L-11.8,-11.8" fill-rule="evenodd"/>
   <path vector-effect="non-scaling-stroke" d="M18.8936,119.121 L17.568,129.8 L-11.8,129.8 L-11.8,57.934 L9.37042,-11.8 L61.2577,-11.8 L40.1693,52.8554 L40.1241,52.9934 L40.0769,53.1371 L40.0169,53.1612 L18.8936,119.121" fill-rule="evenodd"/>
   <path vector-effect="non-scaling-stroke" d="M20.2222,129.8 L24.5297,117.499 L63.4769,129.8 L20.2222,129.8" fill-rule="evenodd"/>
  </g>
  <g font-weight="400" stroke-opacity="1" stroke-width="1" stroke-linecap="square" transform="matrix(0.999067,0,0,0.999067,0,0)" stroke-linejoin="bevel" font-family="Ubuntu" fill="none" font-style="normal" stroke="#000000" font-size="45.8333"/>
  <g font-weight="400" stroke-opacity="1" stroke-width="1" stroke-linecap="square" transform="matrix(11.8,0,0,11.8,0,0)" stroke-linejoin="bevel" font-family="Ubuntu" fill="none" font-style="normal" stroke="#000000" font-size="45.8333"/>
  <g font-weight="400" stroke-opacity="1" stroke-width="1" stroke-linecap="square" transform="matrix(11.8,0,0,11.8,0,0)" stroke-linejoin="bevel" font-family="Ubuntu" fill="none" font-style="normal" stroke="#000000" font-size="45.8333"/>
  <g font-weight="400" stroke-opacity="1" stroke-width="1" stroke-linecap="square" transform="matrix(11.8,0,0,11.8,0,0)" stroke-linejoin="bevel" font-family="Ubuntu" fill="none" font-style="normal" stroke="#000000" font-size="45.8333"/>
  <g font-weight="400" stroke-opacity="1" stroke-width="1" stroke-linecap="square" transform="matrix(1,0,0,1,0,0)" stroke-linejoin="bevel" font-family="Ubuntu" fill="none" font-style="normal" stroke="#000000" font-size="45.8333"/>
  <g font-weight="400" stroke-opacity="1" stroke-width="1" stroke-linecap="square" transform="matrix(11.8,0,0,11.8,0,0)" stroke-linejoin="bevel" font-family="Ubuntu" fill="none" font-style="normal" stroke="#000000" font-size="45.8333"/>
  <g font-weight="400" stroke-opacity="1" stroke-width="1" stroke-linecap="square" transform="matrix(11.8,0,0,11.8,0,0)" stroke-linejoin="bevel" font-family="Ubuntu" fill="none" font-style="normal" stroke="#000000" font-size="45.8333"/>
  <g font-weight="400" stroke-opacity="1" stroke-width="1" stroke-linecap="square" transform="matrix(11.8,0,0,11.8,0,0)" stroke-linejoin="bevel" font-family="Ubuntu" fill="none" font-style="normal" stroke="#000000" font-size="45.8333"/>
  <g font-weight="400" stroke-opacity="1" stroke-width="1" stroke-linecap="square" transform="matrix(11.8,0,0,11.8,0,0)" stroke-linejoin="bevel" font-family="Ubuntu" fill="none" font-style="normal" stroke="#000000" font-size="45.8333"/>
  <g font-weight="400" stroke-opacity="1" stroke-width="1" stroke-linecap="square" transform="matrix(1,0,0,1,0,0)" stroke-linejoin="bevel" font-family="Ubuntu" fill="none" font-style="normal" stroke="#000000" font-size="45.8333"/>
 </g>
</svg>
