<?xml version='1.0' encoding='UTF-8' standalone='no'?>
<svg width="9.99067mm" height="9.99067mm" baseProfile="tiny" version="1.2" xmlns:xlink="http://www.w3.org/1999/xlink" xmlns="http://www.w3.org/2000/svg" viewBox="0 0 118 118">
 <title>Qt SVG Document</title>
 <desc>Generated with Qt</desc>
 <defs/>
 <g stroke-width="1" stroke-linecap="square" stroke-linejoin="bevel" fill="none" stroke="black" fill-rule="evenodd">
  <g font-weight="400" stroke-opacity="1" stroke-width="1" stroke-linecap="square" transform="matrix(1,0,0,1,0,0)" stroke-linejoin="bevel" font-family="Ubuntu" fill="none" font-style="normal" stroke="#000000" font-size="45.8333"/>
  <g font-weight="400" stroke-opacity="1" stroke-width="1" stroke-linecap="square" transform="matrix(1,0,0,1,0,0)" stroke-linejoin="bevel" font-family="Ubuntu" fill="none" font-style="normal" stroke="#000000" font-size="45.8333"/>
  <g font-weight="400" stroke-opacity="1" stroke-width="1" stroke-linecap="square" transform="matrix(11.8,0,0,11.8,0,0)" stroke-linejoin="bevel" font-family="Ubuntu" fill="none" font-style="normal" stroke="#000000" font-size="45.8333"/>
  <g font-weight="400" stroke-opacity="1" stroke-width="1" stroke-linecap="square" transform="matrix(0.999067,0,0,0.999067,0,0)" stroke-linejoin="bevel" font-family="Ubuntu" fill="none" font-style="normal" stroke="#000000" font-size="45.8333"/>
  <g font-weight="400" transform="matrix(0.999067,0,0,0.999067,0,0)" font-family="Ubuntu" fill="#ffffff" font-style="normal" fill-opacity="0" stroke="none" font-size="45.8333">
   <path vector-effect="none" d="M-2,-2 L121,-2 L121,121 L-2,121 L-2,-2" fill-rule="evenodd"/>
  </g>
  <g font-weight="400" stroke-opacity="1" stroke-width="1" stroke-linecap="square" transform="matrix(0.999067,0,0,0.999067,0,0)" stroke-linejoin="bevel" font-family="Ubuntu" fill="none" font-style="normal" stroke="#000000" font-size="45.8333"/>
  <g font-weight="400" stroke-opacity="1" stroke-width="1" stroke-linecap="square" transform="matrix(11.8,0,0,11.8,0,0)" stroke-linejoin="bevel" font-family="Ubuntu" fill="none" font-style="normal" stroke="#000000" font-size="45.8333"/>
  <g font-weight="400" stroke-opacity="1" stroke-width="1" stroke-linecap="square" transform="matrix(11.8,0,0,11.8,0,0)" stroke-linejoin="bevel" font-family="Ubuntu" fill="none" font-style="normal" stroke="#000000" font-size="45.8333"/>
  <g font-weight="400" stroke-opacity="1" stroke-width="1" stroke-linecap="square" transform="matrix(11.8,0,0,11.8,0,0)" stroke-linejoin="bevel" font-family="Ubuntu" fill="none" font-style="normal" stroke="#000000" font-size="45.8333"/>
  <g font-weight="400" stroke-opacity="1" stroke-width="1" stroke-linecap="square" transform="matrix(11.8,0,0,11.8,0,0)" stroke-linejoin="bevel" font-family="Ubuntu" fill="none" font-style="normal" stroke="#000000" font-size="45.8333"/>
  <g font-weight="400" stroke-opacity="1" stroke-width="1" stroke-linecap="square" transform="matrix(11.8,0,0,11.8,0,0)" stroke-linejoin="bevel" font-family="Ubuntu" fill="none" font-style="normal" stroke="#000000" font-size="45.8333"/>
  <g font-weight="400" stroke-opacity="1" stroke-width="1" stroke-linecap="square" transform="matrix(11.8,0,0,11.8,0,0)" stroke-linejoin="bevel" font-family="Ubuntu" fill="none" font-style="normal" stroke="#000000" font-size="45.8333"/>
  <g font-weight="400" transform="matrix(0.999067,0,0,0.999067,0,0)" font-family="Ubuntu" fill="#000000" font-style="normal" fill-opacity="0" stroke="none" font-size="45.8333">
   <rect y="0" width="118" height="118" x="0"/>
  </g>
  <g font-weight="400" stroke-opacity="1" stroke-width="1" stroke-linecap="square" transform="matrix(0.999067,0,0,0.999067,0,0)" stroke-linejoin="bevel" font-family="Ubuntu" fill="none" font-style="normal" stroke="#000000" font-size="45.8333"/>
  <g font-weight="400" stroke-opacity="1" stroke-width="1" stroke-linecap="square" transform="matrix(0.999067,0,0,0.999067,0,0)" stroke-linejoin="bevel" font-family="Ubuntu" fill="none" font-style="normal" stroke="#e31a1c" font-size="45.8333">
   <path vector-effect="non-scaling-stroke" d="M7.72125,29.5111 L-1.47809,61.3005 L-11.8,58.1419 L-11.8,23.7657 L7.72125,29.5111" fill-rule="evenodd"/>
   <path vector-effect="non-scaling-stroke" d="M36.0149,71.2076 L33.7244,78.0718 L8.87561,70.5954 L11.276,63.0327 L36.0149,71.2076" fill-rule="evenodd"/>
   <path vector-effect="non-scaling-stroke" d="M59.5029,53.9315 L56.2992,64.2335 L41.1161,58.9646 L43.624,50.8742 L44.3522,48.6899 L59.5029,53.9315" fill-rule="evenodd"/>
   <path vector-effect="non-scaling-stroke" d="M0.0879256,99.4078 L44.214,113.082 L38.9328,129.8 L8.65681,129.8 L-7.65843,124.806 L0.0879256,99.4078" fill-rule="evenodd"/>
   <path vector-effect="non-scaling-stroke" d="M84.9012,-11.8 L77.0926,6.11844 L68.419,2.18836 L74.8962,-11.8 L84.9012,-11.8" fill-rule="evenodd"/>
   <path vector-effect="non-scaling-stroke" d="M34.9893,78.4518 L32.8528,85.6273 L6.83935,77.3904 L8.87561,70.5954 L33.7244,78.0718 L34.9893,78.4518" fill-rule="evenodd"/>
   <path vector-effect="non-scaling-stroke" d="M97.0199,117.634 L91.4713,129.8 L52.5093,129.8 L59.5891,105.492 L97.0199,117.634" fill-rule="evenodd"/>
   <path vector-effect="non-scaling-stroke" d="M50.8404,102.794 L47.615,114.128 L44.214,113.082 L0.0879256,99.4078 L6.83935,77.3904 L32.8528,85.6273 L53.8817,92.4555 L50.8404,102.794" fill-rule="evenodd"/>
   <path vector-effect="non-scaling-stroke" d="M59.5891,105.492 L52.5093,129.8 L38.9328,129.8 L44.214,113.082 L47.615,114.128 L50.8404,102.794 L59.5891,105.492" fill-rule="evenodd"/>
   <path vector-effect="non-scaling-stroke" d="M65.7138,34.4729 L59.5029,53.9315 L44.3522,48.6899 L43.624,50.8742 L41.1161,58.9646 L56.2992,64.2335 L55.5782,66.1647 L62.6363,68.5921 L72.9642,35.8406 L120.471,43.321 L97.7726,115.744 L97.0199,117.634 L59.5891,105.492 L50.8404,102.794 L53.8817,92.4555 L32.8528,85.6273 L34.9893,78.4518 L37.2603,71.6466 L36.0149,71.2076 L11.276,63.0327 L16.5356,45.8079 L22.8232,27.917 L65.7138,34.4729" fill-rule="evenodd"/>
   <path vector-effect="non-scaling-stroke" d="M129.8,-11.8 L129.8,2.35621 L126.946,20.0455 L109.61,16.3327 L109.817,15.5309 L116.465,-11.8 L129.8,-11.8" fill-rule="evenodd"/>
   <path vector-effect="non-scaling-stroke" d="M85.2959,9.1022 L82.9139,8.30571 L79.81,7.26321 L77.0926,6.11844 L84.9012,-11.8 L93.457,-11.8 L85.2959,9.1022" fill-rule="evenodd"/>
   <path vector-effect="non-scaling-stroke" d="M108.71,-11.8 L100.823,13.7322 L95.2972,12.0961 L93.2958,11.6493 L100.92,-11.8 L108.71,-11.8" fill-rule="evenodd"/>
   <path vector-effect="non-scaling-stroke" d="M93.2958,11.6493 L92.1585,11.2861 L89.0497,10.3706 L85.2959,9.1022 L93.457,-11.8 L100.92,-11.8 L93.2958,11.6493" fill-rule="evenodd"/>
   <path vector-effect="non-scaling-stroke" d="M109.817,15.5309 L109.61,16.3327 L100.823,13.7322 L108.71,-11.8 L116.465,-11.8 L109.817,15.5309" fill-rule="evenodd"/>
   <path vector-effect="non-scaling-stroke" d="M74.8962,-11.8 L68.419,2.18836 L59.7296,-1.79473 L50.2797,-6.08462 L53.107,-11.8 L74.8962,-11.8" fill-rule="evenodd"/>
   <path vector-effect="non-scaling-stroke" d="M129.8,129.8 L128.839,129.8 L111.724,124.355 L113.208,120.809 L117.814,108.541 L129.8,112.444 L129.8,129.8" fill-rule="evenodd"/>
   <path vector-effect="non-scaling-stroke" d="M129.8,129.8 L129.8,129.8 L129.8,112.444 L117.814,108.541 L129.8,59.6894 L129.8,129.8" fill-rule="evenodd"/>
  </g>
  <g font-weight="400" stroke-opacity="1" stroke-width="1" stroke-linecap="square" transform="matrix(0.999067,0,0,0.999067,0,0)" stroke-linejoin="bevel" font-family="Ubuntu" fill="none" font-style="normal" stroke="#000000" font-size="45.8333"/>
  <g font-weight="400" stroke-opacity="1" stroke-width="1" stroke-linecap="square" transform="matrix(11.8,0,0,11.8,0,0)" stroke-linejoin="bevel" font-family="Ubuntu" fill="none" font-style="normal" stroke="#000000" font-size="45.8333"/>
  <g font-weight="400" stroke-opacity="1" stroke-width="1" stroke-linecap="square" transform="matrix(11.8,0,0,11.8,0,0)" stroke-linejoin="bevel" font-family="Ubuntu" fill="none" font-style="normal" stroke="#000000" font-size="45.8333"/>
  <g font-weight="400" stroke-opacity="1" stroke-width="1" stroke-linecap="square" transform="matrix(11.8,0,0,11.8,0,0)" stroke-linejoin="bevel" font-family="Ubuntu" fill="none" font-style="normal" stroke="#000000" font-size="45.8333"/>
  <g font-weight="400" stroke-opacity="1" stroke-width="1" stroke-linecap="square" transform="matrix(1,0,0,1,0,0)" stroke-linejoin="bevel" font-family="Ubuntu" fill="none" font-style="normal" stroke="#000000" font-size="45.8333"/>
  <g font-weight="400" stroke-opacity="1" stroke-width="1" stroke-linecap="square" transform="matrix(11.8,0,0,11.8,0,0)" stroke-linejoin="bevel" font-family="Ubuntu" fill="none" font-style="normal" stroke="#000000" font-size="45.8333"/>
  <g font-weight="400" stroke-opacity="1" stroke-width="1" stroke-linecap="square" transform="matrix(11.8,0,0,11.8,0,0)" stroke-linejoin="bevel" font-family="Ubuntu" fill="none" font-style="normal" stroke="#000000" font-size="45.8333"/>
  <g font-weight="400" stroke-opacity="1" stroke-width="1" stroke-linecap="square" transform="matrix(1,0,0,1,0,0)" stroke-linejoin="bevel" font-family="Ubuntu" fill="none" font-style="normal" stroke="#000000" font-size="45.8333"/>
 </g>
</svg>
